<svg enable-background="new 0 0 32 32" viewBox="0 0 32 32" xmlns="http://www.w3.org/2000/svg"><g id="Grid" display="none"/><g id="wishlist"><path  d="m24.62 13.919c-.497 0-.9.403-.9.9v10.97c0 1.709-1.391 3.1-3.1 3.1h-14.62c-1.709 0-3.1-1.391-3.1-3.1v-17.609c0-1.709 1.391-3.1 3.1-3.1h9.82c.497 0 .9-.403.9-.9s-.403-.9-.9-.9h-9.82c-2.702 0-4.9 2.198-4.9 4.9v17.61c0 2.702 2.198 4.9 4.9 4.9h14.62c2.702 0 4.9-2.198 4.9-4.9v-10.97c0-.498-.403-.901-.9-.901z"/><path  d="m18.93 16.5h-6.669c-.497 0-.9.403-.9.9s.403.9.9.9h6.669c.497 0 .9-.403.9-.9s-.403-.9-.9-.9z"/><path d="m8.414 16.5h-.728c-.497 0-.9.403-.9.9s.403.9.9.9h.729c.497 0 .9-.403.9-.9s-.404-.9-.901-.9z"/><path   d="m18.93 11.991h-6.669c-.497 0-.9.403-.9.9s.403.9.9.9h6.669c.497 0 .9-.403.9-.9s-.403-.9-.9-.9z"/><path d="m8.414 11.991h-.728c-.497 0-.9.403-.9.9s.403.9.9.9h.729c.497 0 .9-.403.9-.9s-.404-.9-.901-.9z"/><path  d="m18.93 21.009h-6.669c-.497 0-.9.403-.9.9s.403.9.9.9h6.669c.497 0 .9-.403.9-.9s-.403-.9-.9-.9z"/><path d="m8.414 21.009h-.728c-.497 0-.9.403-.9.9s.403.9.9.9h.729c.497 0 .9-.403.9-.9s-.404-.9-.901-.9z"/><path fill="#fff" d="m29.764 2.444c-1.405-1.404-3.63-1.502-5.148-.292-1.519-1.211-3.746-1.112-5.151.293-1.509 1.51-1.509 3.966 0 5.475l3.699 3.699c.4.4.926.601 1.452.601s1.052-.2 1.452-.601l3.699-3.699c1.508-1.508 1.508-3.964-.003-5.476zm-1.27 4.204-3.699 3.699c-.099.099-.26.099-.358 0l-3.699-3.699c-.807-.808-.807-2.122.002-2.932.404-.403.934-.605 1.465-.605.529 0 1.059.201 1.462.603l.313.313c.351.352.921.352 1.271 0l.313-.312c.808-.804 2.122-.804 2.929.004.808.808.808 2.122.001 2.929z"/></g><g id="invoice"/><g id="mobile_payment"/><g id="shopping_bag"/><g id="bill"/><g id="block_shopping"/><g id="price_tag"/><g id="hanger"/><g id="package"/><g id="atm"/><g id="advertisment"/><g id="shopping_cart"/><g id="add_to_cart"/><g id="remove_from_cart"/><g id="wallet"/><g id="store"/><g id="badge"/><g id="gift"/><g id="barcode"/><g id="basket"/><g id="open"/><g id="closed"/><g id="receipt"/><g id="voucher"/><g id="search_shopping"/></svg>