<svg xmlns="http://www.w3.org/2000/svg" version="1.1" xmlns:xlink="http://www.w3.org/1999/xlink" width="512" height="512" x="0" y="0" viewBox="0 0 64 64" style="enable-background:new 0 0 512 512" xml:space="preserve" class=""><g><g fill="#000"><path d="M35 27a2 2 0 1 0 0 4h10a2 2 0 1 0 0-4zM33 42a2 2 0 0 1 2-2h10a2 2 0 1 1 0 4H35a2 2 0 0 1-2-2z" fill="#ffffff" opacity="1" data-original="#000000" class=""></path><path fill-rule="evenodd" d="M45.71 7H48a8 8 0 0 1 8 8v39a8 8 0 0 1-8 8H16a8 8 0 0 1-8-8V15a8 8 0 0 1 8-8h2.29c.86-2.891 3.539-5 6.71-5h14a7.003 7.003 0 0 1 6.71 5zm-27.42 4H16a4 4 0 0 0-4 4v39a4 4 0 0 0 4 4h32a4 4 0 0 0 4-4V15a4 4 0 0 0-4-4h-2.29c-.86 2.892-3.539 5-6.71 5H25a7.003 7.003 0 0 1-6.71-5zM22 9a3 3 0 0 1 3-3h14a3 3 0 1 1 0 6H25a3 3 0 0 1-3-3z" clip-rule="evenodd" fill="#ffffff" opacity="1" data-original="#000000" class=""></path></g><path fill="#ffcd00" d="M28.414 28.414a2 2 0 1 0-2.828-2.828L21.37 29.8l-.67-1.083a2 2 0 1 0-3.402 2.105l2 3.23a2 2 0 0 0 3.115.362zM28.414 42.414a2 2 0 1 0-2.828-2.828L21.37 43.8l-.67-1.084a2 2 0 1 0-3.402 2.106l2 3.23a2 2 0 0 0 3.115.362z" opacity="1" data-original="#fa1228" class=""></path></g></svg>