<svg xmlns="http://www.w3.org/2000/svg" version="1.1" xmlns:xlink="http://www.w3.org/1999/xlink" width="512" height="512" x="0" y="0" viewBox="0 0 32 32" style="enable-background:new 0 0 512 512" xml:space="preserve" class=""><rect width="32" height="32" rx="6.4" ry="6.4" fill="#eb2600" shape="rounded" transform="matrix(1,0,0,1,0,0)"></rect><g transform="matrix(0.7,0,0,0.7,4.800000000000001,4.800000000000001)"><path d="M2 5v6.563c0 1.654 1.346 3 3 3h6.562c1.655 0 3-1.346 3-3V5c0-1.654-1.345-3-3-3H5C3.346 2 2 3.346 2 5zm2 0c0-.552.449-1 1-1h6.562c.552 0 1 .448 1 1v6.563c0 .551-.448 1-1 1H5c-.551 0-1-.449-1-1zM2 27c0 1.654 1.346 3 3 3h6.562c1.655 0 3-1.346 3-3v-6.563c0-1.654-1.345-3-3-3H5c-1.654 0-3 1.346-3 3zm2-6.563c0-.551.449-1 1-1h6.562c.552 0 1 .449 1 1V27c0 .552-.448 1-1 1H5c-.551 0-1-.448-1-1zM27 17.438h-6.563c-1.654 0-3 1.345-3 3V27c0 1.654 1.346 3 3 3H27c1.654 0 3-1.346 3-3v-6.563c0-1.654-1.346-3-3-3zM28 27c0 .552-.449 1-1 1h-6.563c-.55 0-1-.448-1-1v-6.563c0-.551.45-1 1-1H27c.551 0 1 .449 1 1zM29 7.281h-4.281V3a1 1 0 1 0-2 0v4.281h-4.282a1 1 0 1 0 0 2h4.282v4.281a1 1 0 1 0 2 0v-4.28H29a1 1 0 1 0 0-2z" fill="#ffffff" opacity="1" data-original="#000000" class=""></path></g></svg>