<svg clip-rule="evenodd" fill-rule="evenodd" height="512" stroke-linejoin="round" stroke-miterlimit="2" viewBox="0 0 24 24" width="512" xmlns="http://www.w3.org/2000/svg"><g id="Icon"><path fill="#fff" d="m17.75 15c0-.414.336-.75.75-.75s.75.336.75.75v7c0 .414-.336.75-.75.75s-.75-.336-.75-.75z"/><path fill="#fff" d="m15 19.25c-.414 0-.75-.336-.75-.75s.336-.75.75-.75h7c.414 0 .75.336.75.75s-.336.75-.75.75z"/><path  d="m10.5 1.25c3.036 0 5.5 2.464 5.5 5.5s-2.464 5.5-5.5 5.5-5.5-2.464-5.5-5.5 2.464-5.5 5.5-5.5zm0 1.5c-2.208 0-4 1.792-4 4s1.792 4 4 4 4-1.792 4-4-1.792-4-4-4z"/><path  d="m2 22.75c-.241 0-.456-.114-.594-.292-.075-.09-.132-.208-.15-.363-.004-.03-.006-.062-.006-.095 0-.004 0-.008 0-.012v-.988c0-4.28 3.47-7.75 7.75-7.75h5.5c.414 0 .75.336.75.75s-.336.75-.75.75h-5.5c-3.452 0-6.25 2.798-6.25 6.25v.988c0 .708-.75.762-.75.762z"/></g></svg>