<svg height="512" viewBox="0 0 64 64" width="512" xmlns="http://www.w3.org/2000/svg"><g fill-rule="evenodd"><path d="m48 64h-32a16.0007 16.0007 0 0 1 -16-16v-32a16.0007 16.0007 0 0 1 16-16h32a16 16 0 0 1 16 16v32a16 16 0 0 1 -16 16" fill="#ffd514"/><path d="m30 18h18a9.0006 9.0006 0 0 0 .92-17.954c-.306-.017-.609-.046-.92-.046h-32a16.0007 16.0007 0 0 0 -16 16v32a30.0007 30.0007 0 0 1 30-30" fill="#fffa00"/><path d="m48 32a16 16 0 1 0 16 16v-32a16 16 0 0 1 -16 16" fill="#ffaf28"/></g><path d="m32 53.499a11.9617 11.9617 0 0 1 -6.9033-2.164 9.2183 9.2183 0 0 0 -1.8272-.9561 12.243 12.243 0 0 0 -3.5371-.5288 4.9809 4.9809 0 0 1 -2.8008-.6357 3.0346 3.0346 0 0 1 -1.207-2.2266c-.1807-.0615-.4092-.1226-.6689-.1914a12.6258 12.6258 0 0 1 -3.0657-1.1729 2.7808 2.7808 0 0 1 -1.7226-2.5283 2.5989 2.5989 0 0 1 1.69-2.3066c5.2734-2.5493 6.6338-6.2012 6.91-7.1724-.4717-.334-1.3164-.8808-1.7744-1.1777-.4327-.28-.8067-.5225-1.0108-.6651-2.4775-1.727-2.22-3.6362-1.8467-4.6206a3.3 3.3 0 0 1 3.2442-2.1093 4.5734 4.5734 0 0 1 .98.1074c.3125.0679.6152.1533.9043.2456a31.9344 31.9344 0 0 1 .0683-3.8071c.5733-6.63 5.624-11.0884 12.5664-11.0933 6.9456.0049 11.9954 4.4639 12.5677 11.0939a31.9232 31.9232 0 0 1 .0693 3.8072c.2891-.0933.5948-.1792.91-.2476a4.5721 4.5721 0 0 1 .9736-.1059 3.3021 3.3021 0 0 1 3.2442 2.11c.373.9854.6289 2.8941-1.8467 4.62-.2041.1426-.5781.3853-1.0108.6651-.457.2964-1.2988.8418-1.7753 1.1787.2763.9682 1.6377 4.6225 6.9072 7.17a2.6 2.6 0 0 1 1.6933 2.3086 2.7776 2.7776 0 0 1 -1.7207 2.5264 12.59 12.59 0 0 1 -3.0673 1.1743c-.26.0693-.4883.13-.669.1919a3.0392 3.0392 0 0 1 -1.2119 2.229 4.9756 4.9756 0 0 1 -2.7959.6328 12.2221 12.2221 0 0 0 -3.5361.5293 9.2046 9.2046 0 0 0 -1.8282.956 11.9609 11.9609 0 0 1 -6.9021 2.1632z" fill="#b47800"/><path d="m51.045 43.871c-1.911 1.052-3.181.938-4.167 1.576-.839.541-.346 1.706-.952 2.125-.746.519-2.964-.035-5.822.908-2.391.789-3.852 3.018-8.104 3.019-4.252-.001-5.714-2.23-8.104-3.019-2.859-.943-5.076-.389-5.823-.908-.606-.419-.113-1.584-.951-2.125-.986-.638-2.256-.524-4.168-1.576-1.217-.672-.528-1.086-.122-1.283 6.922-3.347 8.022-8.523 8.074-8.912a1.2274 1.2274 0 0 0 -.384-1.305c-.493-.458-2.688-1.815-3.295-2.238-1.008-.703-1.449-1.406-1.121-2.27a1.5642 1.5642 0 0 1 1.924-.759c1.104.24 2.178.794 2.797.942.717.179.658-.389.651-.514a40.306 40.306 0 0 1 -.053-5.77c.512-5.922 5.109-9.262 10.575-9.266 5.465.004 10.062 3.344 10.574 9.266a40.3314 40.3314 0 0 1 -.052 5.77c-.007.125-.067.693.65.514.62-.148 1.693-.702 2.798-.942a1.5646 1.5646 0 0 1 1.924.759c.327.864-.113 1.567-1.121 2.27-.607.423-2.802 1.78-3.295 2.238a1.2263 1.2263 0 0 0 -.385 1.305c.053.389 1.153 5.565 8.074 8.912.406.197 1.096.611-.122 1.283z" fill="#fff"/></svg>