<svg id="Layer_1" enable-background="new 0 0 64 64" viewBox="0 0 64 64" xmlns="http://www.w3.org/2000/svg"><g id="TikTok"><path d="m3 13c0-5.5 4.5-10 10-10h38c5.5 0 10 4.5 10 10v38c0 5.5-4.5 10-10 10h-38c-5.5 0-10-4.5-10-10z" fill="#314a52"/><path clip-rule="evenodd" d="m9.5 5.1c1-.5 2.1-.8 4-.9 1.9-.2 4.3-.2 7.7-.2h21.6c3.4 0 5.8 0 7.7.2s3.1.4 4 .9c1.9 1 3.4 2.5 4.4 4.4.5 1 .8 2.1.9 4 .1 1.7.2 3.8.2 6.6-.1 12.2-7.7 22.7-19 28.1-3.5 2.3-9.8 3.8-17 3.8-11 0-19.9-3.6-20-7.9 0-.4 0-.8 0-1.3v-21.6c0-3.4 0-5.8.2-7.7s.4-3.1.9-4c.9-1.9 2.5-3.5 4.4-4.4zm33.4-5.1h-21.8c-3.3 0-5.9 0-8 .2-2.1.1-3.8.5-5.5 1.3-2.6 1.4-4.7 3.5-6.1 6.1-.8 1.7-1.2 3.4-1.3 5.6-.2 2-.2 4.6-.2 7.9v21.8c0 3.3 0 5.9.2 8s.5 3.9 1.4 5.5c1.3 2.6 3.4 4.7 6 6.1 1.6.8 3.4 1.2 5.5 1.4s4.7.2 8 .2h21.8c3.3 0 5.9 0 8-.2s3.9-.5 5.5-1.4c2.6-1.3 4.8-3.5 6.1-6.1.8-1.6 1.2-3.4 1.4-5.5s.2-4.7.2-8v-21.8c0-3.3 0-5.9-.2-8s-.5-3.9-1.4-5.5c-1.4-2.6-3.5-4.7-6.1-6.1-1.6-.8-3.4-1.2-5.5-1.4-2.1-.1-4.7-.1-8-.1z" fill-rule="evenodd"/><path d="m54 22c-6.6 0-12-5.4-12-12h-8v32c0 3.3-2.7 6-6 6s-6-2.7-6-6 2.7-6 6-6c.7 0 1.4.1 2 .3v-8.2c-.7-.1-1.3-.1-2-.1-7.7 0-14 6.3-14 14s6.3 14 14 14 14-6.3 14-14v-16c3.3 2.5 7.5 4 12 4z" fill="#fe2c55"/><path d="m52 20c-6.6 0-12-5.4-12-12h-8v32c0 3.3-2.7 6-6 6s-6-2.7-6-6 2.7-6 6-6c.7 0 1.4.1 2 .3v-8.2c-.7-.1-1.3-.1-2-.1-7.7 0-14 6.3-14 14s6.3 14 14 14 14-6.3 14-14v-16c3.3 2.5 7.5 4 12 4z" fill="#25f4ee"/><path d="m52 21.8c-3-.5-5.6-2.1-7.4-4.4-2.3-1.8-3.9-4.4-4.4-7.4h-6.2v32c0 3.3-2.7 6-6 6-2.2 0-4.1-1.2-5.1-2.9-1.7-1.1-2.9-3-2.9-5.1 0-3.3 2.7-6 6-6 .7 0 1.4.1 2 .3v-6.3c-7.7 0-14 6.3-14 14 0 3.4 1.2 6.4 3.2 8.8 2.4 2 5.5 3.2 8.8 3.2 7.7 0 14-6.3 14-14v-16c3.3 2.5 7.5 4 12 4z" fill="#fff"/></g></svg>